# xmcd
#
# Track frame offsets: 
#        150
#        20994
#        43467
#        65034
#        93575
#        104869
#        129741
#        152742
#        173507
#        189472
#        212539
#        230782
#
# Disc length: 3484 seconds
#
# Revision: 1
# Processed by: cddbd v1.5.2PL0 Copyright (c) Steve Scherf et al.
# Submitted via: ExactAudioCopy v0.99pb4
#
DISCID=b80d9a0c
DTITLE=Stina Stenerud - Kissing Fools
DYEAR=2009
DGENRE=Blues
TTITLE0=Kissing a Fool
TTITLE1=Delta Blues Queen
TTITLE2=Run
TTITLE3=Let Me Know
TTITLE4=Big CIty Groove
TTITLE5=Brooklyn Lights
TTITLE6=Stay In Bed
TTITLE7=Turn Back
TTITLE8=Why Won't You?
TTITLE9=You Sex Me
TTITLE10=Later
TTITLE11=Waltz for Selma
EXTD=
EXTT0=
EXTT1=
EXTT2=
EXTT3=
EXTT4=
EXTT5=
EXTT6=
EXTT7=
EXTT8=
EXTT9=
EXTT10=
EXTT11=
PLAYORDER=
